<svg xmlns="http://www.w3.org/2000/svg" viewBox="0 0 32 32" fill="none">
  <defs>
    <linearGradient id="rocketGradient" x1="0%" y1="0%" x2="100%" y2="100%">
      <stop offset="0%" style="stop-color:#8B5CF6"/>
      <stop offset="100%" style="stop-color:#A855F7"/>
    </linearGradient>
    <linearGradient id="flameGradient" x1="0%" y1="0%" x2="0%" y2="100%">
      <stop offset="0%" style="stop-color:#F97316"/>
      <stop offset="100%" style="stop-color:#EF4444"/>
    </linearGradient>
  </defs>
  <!-- Background circle -->
  <circle cx="16" cy="16" r="15" fill="#0F0A1F"/>
  <circle cx="16" cy="16" r="14" stroke="url(#rocketGradient)" stroke-width="1" fill="none" opacity="0.5"/>
  <!-- Rocket body -->
  <path d="M16 6C16 6 10 12 10 18C10 20 11 22 16 24C21 22 22 20 22 18C22 12 16 6 16 6Z" fill="url(#rocketGradient)"/>
  <!-- Rocket window -->
  <circle cx="16" cy="14" r="2.5" fill="#0F0A1F"/>
  <circle cx="16" cy="14" r="1.5" fill="#06D6A0" opacity="0.8"/>
  <!-- Rocket fins -->
  <path d="M10 18L7 21L10 20V18Z" fill="url(#rocketGradient)"/>
  <path d="M22 18L25 21L22 20V18Z" fill="url(#rocketGradient)"/>
  <!-- Flame -->
  <path d="M14 24C14 24 15 26 16 28C17 26 18 24 18 24C17.5 25 16.5 25 16 25C15.5 25 14.5 25 14 24Z" fill="url(#flameGradient)"/>
</svg>
